<svg id="Logo" xmlns="http://www.w3.org/2000/svg" viewBox="0 0 1000 271"><defs><style>.cls-1{fill:#fff;}.cls-2,.cls-3{fill:#282828;}.cls-2{fill-rule:evenodd;}</style></defs><circle class="cls-1" cx="248.6" cy="84.86" r="25.32"/><path class="cls-2" d="M146.06,157.5c-1.52-1-5.88-6.78-17.81-35.36-.75-1.8-1.45-3.34-2.11-4.67l-2.44-5.9-21-50.64h-42l21,50.64,21,50.64L122.1,209a1.74,1.74,0,0,0,3.21,0l21.08-50.46A.88.88,0,0,0,146.06,157.5Z"/><path class="cls-2" d="M224.66,157.5c-1.52-1-5.88-6.79-17.81-35.37-.75-1.79-1.45-3.33-2.11-4.66l-2.44-5.9-21-50.64H139.37l21,50.64,21,50.64L200.7,209a1.74,1.74,0,0,0,3.21,0L225,158.54A.88.88,0,0,0,224.66,157.5Z"/><path class="cls-3" d="M602.05,138.22v45.62H588.18V138.22c0-13.83-8.8-20-19.65-20h0c-10.28,0-19.65,5.93-19.65,20v45.62H535v-77h13.87v6.22a28.21,28.21,0,0,1,21-8.78h0C588.43,104.3,602.05,118.35,602.05,138.22ZM824.24,80.51V183.84H810.37V174.5a35.59,35.59,0,0,1-27.19,11.9,41.05,41.05,0,1,1,0-82.1,35.59,35.59,0,0,1,27.19,11.9V80.51Zm-13.87,64.84a27.18,27.18,0,1,0-8,19.22A27,27,0,0,0,810.37,145.35ZM520.49,106.86v77H506.62V174.5a35.57,35.57,0,0,1-27.18,11.9,41.05,41.05,0,0,1,0-82.1,35.57,35.57,0,0,1,27.18,11.9v-9.34Zm-13.87,38.49a27.18,27.18,0,1,0-8,19.22A27,27,0,0,0,506.62,145.35ZM716.05,160H731.5a41.6,41.6,0,1,1,2-7.28H667a27.18,27.18,0,0,0,45.39,11.87A27.3,27.3,0,0,0,716.05,160Zm-49.46-20.45h53.09a27.17,27.17,0,0,0-53.09,0Zm-215.77-59H435.71l-30.53,73.71L379.8,80.51h-7.3l-25.38,73.71L316.59,80.51H301.48l42.79,103.33H352l24.12-70,24.11,70H408Zm401.8,0H838.75V183.84h13.87ZM648.45,106.86H634.91V80.51H621v26.35H607.51v13.87H621v63.11h13.87V120.73h13.54Zm258.89,77,31.89-77H924.12L899.79,165.6l-24.33-58.74H860.35l31.88,77h0l-10.86,26.24h15.11l10.86-26.24Z"/></svg>