<?xml version="1.0" encoding="utf-8"?>
<!-- Generator: Adobe Illustrator 25.2.3, SVG Export Plug-In . SVG Version: 6.00 Build 0)  -->
<svg version="1.1" id="Logo" xmlns="http://www.w3.org/2000/svg" xmlns:xlink="http://www.w3.org/1999/xlink" x="0px" y="0px"
	 viewBox="0 0 1000 271" style="enable-background:new 0 0 1000 271;" xml:space="preserve">
<style type="text/css">
	.st0{fill:#21BDDB;}
	.st1{fill-rule:evenodd;clip-rule:evenodd;fill:#282828;}
	.st2{fill:#282828;}
</style>
<g>
	<circle class="st0" cx="248.6" cy="84.9" r="25.3"/>
	<path class="st1" d="M146.1,157.5c-1.5-1-5.9-6.8-17.8-35.4c-0.8-1.8-1.4-3.3-2.1-4.7l-2.4-5.9l-21-50.6h-42l21,50.6l21,50.6
		l19.4,46.8c0.4,0.9,1.4,1.3,2.3,0.9c0.4-0.2,0.8-0.5,0.9-0.9l21.1-50.5C146.5,158.2,146.4,157.7,146.1,157.5z"/>
	<path class="st1" d="M224.7,157.5c-1.5-1-5.9-6.8-17.8-35.4c-0.8-1.8-1.4-3.3-2.1-4.7l-2.4-5.9l-21-50.6h-41.9l21,50.6l21,50.6
		l19.3,46.8c0.4,0.9,1.4,1.3,2.3,0.9c0.4-0.2,0.8-0.5,0.9-0.9l21.1-50.5C225.1,158.2,225,157.7,224.7,157.5z"/>
	<path class="st2" d="M602,138.2v45.6h-13.9v-45.6c0-13.8-8.8-20-19.7-20l0,0c-10.3,0-19.7,5.9-19.7,20v45.6H535v-77h13.9v6.2
		c5.5-5.7,13.1-8.9,21-8.8l0,0C588.4,104.3,602,118.3,602,138.2z M824.2,80.5v103.3h-13.9v-9.3c-6.9,7.7-16.8,12.1-27.2,11.9
		c-22.7,0-41-18.4-41-41.1s18.4-41,41-41c10.4-0.2,20.3,4.2,27.2,11.9V80.5H824.2z M810.4,145.4c0-15-12.1-27.2-27.1-27.2
		c-15,0-27.2,12.1-27.2,27.1c0,15,12.1,27.2,27.1,27.2c7.2,0,14.1-2.8,19.2-7.9C807.5,159.5,810.4,152.6,810.4,145.4z M520.5,106.9
		v77h-13.9v-9.4c-6.9,7.7-16.8,12.1-27.2,11.9c-22.7,0-41-18.4-41-41.1s18.4-41,41-41c10.4-0.2,20.3,4.2,27.2,11.9v-9.3H520.5z
		 M506.6,145.4c0-15-12.1-27.2-27.1-27.2c-15,0-27.2,12.1-27.2,27.1c0,15,12.1,27.2,27.1,27.2c7.2,0,14.1-2.8,19.2-7.9
		C503.7,159.5,506.6,152.6,506.6,145.4z M716,160h15.5c-8.1,21.5-32.1,32.4-53.6,24.3c-21.5-8.1-32.4-32.1-24.3-53.6
		s32.1-32.4,53.6-24.3c18.8,7.1,29.9,26.5,26.3,46.3H667c4.1,14.5,19.1,22.9,33.5,18.8c4.5-1.3,8.6-3.7,11.9-7
		C713.8,163.2,715,161.7,716,160z M666.6,139.6h53.1c-3.2-14.7-17.7-24-32.3-20.8C677,121.1,668.9,129.2,666.6,139.6z M450.8,80.6
		h-15.1l-30.5,73.7l-25.4-73.8h-7.3l-25.4,73.7l-30.5-73.7h-15.1l42.8,103.3h7.7l24.1-70l24.1,70h7.8L450.8,80.6z M852.6,80.6h-13.9
		v103.3h13.9L852.6,80.6z M648.5,106.9h-13.5V80.5H621v26.3h-13.5v13.9H621v63.1h13.9v-63.1h13.5L648.5,106.9z M907.3,183.9l31.9-77
		h-15.1l-24.3,58.7l-24.3-58.7h-15.1l31.9,77l0,0l-10.9,26.2h15.1L907.3,183.9L907.3,183.9z"/>
</g>
</svg>
